<?xml version="1.0" standalone="no"?>
<!DOCTYPE svg PUBLIC "-//W3C//DTD SVG 1.1//EN" "http://www.w3.org/Graphics/SVG/1.1/DTD/svg11.dtd" >
<svg xmlns="http://www.w3.org/2000/svg" xmlns:xlink="http://www.w3.org/1999/xlink" version="1.1">
<metadata>
Created by FontForge 20170731 at Thu Oct 21 22:36:11 2021
 By Aleksey,,,
Copyright (c) 2016 by Eric Tirado. All rights reserved.
</metadata>
<defs>
<font id="NORTHWEST-Bold" horiz-adv-x="1273" >
  <font-face 
    font-family="NORTHWEST Bold"
    font-weight="400"
    font-stretch="normal"
    units-per-em="2048"
    panose-1="0 0 5 0 0 0 0 0 0 0"
    ascent="1638"
    descent="-410"
    x-height="1141"
    cap-height="1143"
    bbox="12 -307 1898 1413"
    underline-thickness="102"
    underline-position="-307"
    unicode-range="U+0020-007A"
  />
<missing-glyph horiz-adv-x="860" 
d="M705 1413v-1720h-545v1720h545zM571 240h-284v-195h284v195zM516 182v-80h-172v80h172zM571 537h-172v-97h60v41h57v-82h-172v138h-57v-193h284v193zM571 748h-55v-115h-229v-58h284v173zM571 850h-284v-55h112v-64h-112v-57h172v121h112v55zM401 1018v-62h-57v62h57z
M459 1075h-172v-178h284v59h-112v119zM571 1298h-282v-57h110v-63h-112v-58h284v58h-112v63h112v57zM571 6h-284v-57h121l-121 -80v-57h284v57h-174l121 80h53v57z" />
    <glyph glyph-name=".notdef" horiz-adv-x="860" 
d="M705 1413v-1720h-545v1720h545zM571 240h-284v-195h284v195zM516 182v-80h-172v80h172zM571 537h-172v-97h60v41h57v-82h-172v138h-57v-193h284v193zM571 748h-55v-115h-229v-58h284v173zM571 850h-284v-55h112v-64h-112v-57h172v121h112v55zM401 1018v-62h-57v62h57z
M459 1075h-172v-178h284v59h-112v119zM571 1298h-282v-57h110v-63h-112v-58h284v58h-112v63h112v57zM571 6h-284v-57h121l-121 -80v-57h284v57h-174l121 80h53v57z" />
    <glyph glyph-name=".null" horiz-adv-x="0" 
 />
    <glyph glyph-name="nonmarkingreturn" horiz-adv-x="682" 
 />
    <glyph glyph-name="space" unicode=" " horiz-adv-x="512" 
 />
    <glyph glyph-name="ampersand" unicode="&#x26;" horiz-adv-x="1445" 
d="M1186 -254q9 -12 26 -14t29 8l98 74q13 10 15.5 28t-8.5 31q-42 53 -187 227q-20 23 -2 52q47 64 81 139.5t50.5 136t25 137t10 118t1.5 103.5q0 17 -12 29t-29 12h-278q-17 0 -29 -12t-12 -29v-122q0 -17 12 -29t29 -12h63q19 0 31.5 -14.5t9.5 -33.5q-21 -135 -76 -235
q-9 -20 -31.5 -22.5t-35.5 14.5q-61 74 -165.5 199t-139.5 167q-12 12 -10 29.5t16 28.5q75 60 121 134.5t59 146t-1 140.5t-52 121t-100.5 83.5t-139.5 31.5q-78 0 -145.5 -32t-111 -91t-62.5 -133t0 -165.5t77 -182.5q17 -31 -10 -55q-242 -187 -242 -422
q0 -105 40.5 -193.5t108.5 -147.5t159 -94t190 -40t204 22t198 86q12 7 27 5t26 -13q149 -182 172 -211zM485 588q46 -54 172 -204.5t170 -203.5q12 -15 8.5 -34.5t-20.5 -28.5q-89 -45 -187 -52.5t-177.5 19.5t-132 92.5t-52.5 155.5q0 77 43.5 139.5t120.5 122.5
q12 9 28.5 7.5t26.5 -13.5zM481 930q-51 93 -45.5 155t38 92.5t77.5 30.5q67 0 90 -49.5t-4.5 -118.5t-93.5 -122q-15 -12 -34 -8.5t-28 20.5z" />
    <glyph glyph-name="A" unicode="A" horiz-adv-x="1298" 
d="M780 1143q26 0 37 -25l477 -1061q9 -20 -3 -38.5t-34 -18.5h-147q-24 0 -37 25l-74 165q-11 25 -36 25h-545q-26 0 -37 -25l-76 -167q-13 -23 -37 -23h-145q-22 0 -34 18.5t-3 38.5l373 832q9 20 -3 38.5t-34 18.5h-16q-17 0 -29 12t-12 29v115q0 17 12 29t29 12h374z
M489 444q-3 -11 3 -19.5t18 -8.5h360q11 0 17 9t2 19l-180 414q-5 12 -19 12t-18 -12z" />
    <glyph glyph-name="B" unicode="B" horiz-adv-x="1271" 
d="M1049 561q60 -40 90 -105.5t30 -119.5q0 -336 -426 -336h-501q-17 0 -29 11t-12 28v866q0 17 -12 29t-29 12h-39q-17 0 -28 11t-11 28v115q0 17 11 29t28 12h622q178 0 286 -83t108 -249q0 -114 -88 -182q-17 -13 -17 -34t17 -32zM414 723q0 -17 11 -29t28 -12h290
q95 0 137 34t42 89q0 24 -6.5 45t-24 44.5t-55.5 37.5t-93 14h-290q-17 0 -28 -12t-11 -29v-182zM743 201q36 0 71 6.5t68 21t53.5 42t20.5 65.5q0 75 -60.5 116.5t-152.5 41.5h-290q-17 0 -28 -12t-11 -29v-213q0 -17 11 -28t28 -11h290z" />
    <glyph glyph-name="C" unicode="C" horiz-adv-x="1185" 
d="M1001 293q-10 10 -26.5 10.5t-26.5 -8.5q-55 -44 -124 -68t-136 -24q-102 0 -180 33.5t-123 90t-67.5 123t-22.5 140.5q-1 74 22.5 142.5t69 126.5t124 93t177.5 35q142 0 248 -84q12 -10 27 -9.5t26 11.5l86 82q13 12 12.5 30.5t-12.5 29.5q-171 145 -387 145
q-120 0 -221.5 -34t-171.5 -92t-119 -135t-72 -163.5t-22 -177.5q1 -115 37 -218t107 -187.5t190 -134.5t272 -50q236 0 402 141q13 10 13.5 29t-11.5 31z" />
    <glyph glyph-name="D" unicode="D" 
d="M651 1143q114 0 209 -31.5t160 -85t111 -126t68 -152.5t24 -166q2 -112 -32.5 -213.5t-101.5 -185t-180.5 -133.5t-257.5 -50h-407q-17 0 -29 12t-12 29v864q0 17 -12 29t-29 12h-39q-17 0 -29 12t-12 29v115q0 17 12 29t29 12h528zM651 207q94 0 166 32.5t113 86.5
t61.5 119t18.5 137q-2 69 -24 131t-64 113.5t-112 81.5t-159 30h-194q-17 0 -29 -12t-12 -29v-649q0 -17 12 -29t29 -12h194z" />
    <glyph glyph-name="E" unicode="E" horiz-adv-x="1179" 
d="M1057 989q0 -17 -11 -29t-28 -12h-561q-17 0 -29 -11t-12 -28v-200q0 -17 12 -29t29 -12h477q15 0 27 -12t12 -29v-113q0 -17 -11.5 -28t-27.5 -11h-477q-17 0 -29 -12t-12 -29v-201q0 -17 12 -28.5t29 -11.5h561q17 0 28 -11.5t11 -27.5v-113q0 -17 -11 -29t-28 -12
h-774q-17 0 -29 12t-12 29v868q0 17 -12 28t-29 11h-39q-17 0 -29 12t-12 29v113q0 17 12 29t29 12h895q17 0 28 -12t11 -29v-113z" />
    <glyph glyph-name="F" unicode="F" horiz-adv-x="1144" 
d="M1022 989q0 -15 -12 -27t-29 -12h-524q-17 0 -29 -12t-12 -29v-250q0 -17 12 -29t29 -12h430q17 0 29 -11.5t12 -26.5v-113q0 -17 -12 -29t-29 -12h-430q-17 0 -29 -12t-12 -29v-344q0 -17 -12 -29t-27 -12h-135q-17 0 -29 12t-12 29v868q0 17 -12 29t-29 12h-39
q-17 0 -28 11.5t-11 27.5v113q0 17 11 29t28 12h860q17 0 29 -12t12 -29v-113z" />
    <glyph glyph-name="G" unicode="G" horiz-adv-x="1243" 
d="M1100 662q17 0 29 -11t12 -28v-320v-123v-139q0 -15 -12 -27t-29 -12h-131q-9 0 -15 6t-6 15v2q0 5 -5 8t-9 0q-127 -58 -248 -58q-125 0 -227.5 32t-171.5 86.5t-116 129.5t-68 158.5t-21 175.5q0 98 23.5 188t73 169t120 137t170 91.5t217.5 33.5q219 0 391 -146
q13 -10 13.5 -27.5t-11.5 -29.5l-78 -82q-10 -10 -25.5 -10.5t-27.5 8.5q-120 90 -262 90q-180 0 -286.5 -120t-106.5 -302q0 -73 22 -138.5t67 -121t123 -88.5t181 -33q135 0 242 80q14 8 14 31v143q0 17 -11 28t-28 11h-211q-17 0 -29 12t-12 29v113q0 17 12 28t29 11h408
z" />
    <glyph glyph-name="H" unicode="H" 
d="M938 1102q0 17 12 29t29 12h133q15 0 27 -12t12 -29v-1061q0 -17 -12 -29t-27 -12h-133q-17 0 -29 12t-12 29v393q0 17 -12 29t-29 12h-440q-15 0 -27 -12t-12 -29v-393q0 -17 -12 -29t-29 -12h-135q-17 0 -28 12t-11 29v868q0 17 -12 28t-29 11h-39q-17 0 -29 12t-12 29
v113q0 17 12 29t29 12h254q17 0 29 -12t12 -29v-393q0 -17 12 -29t27 -12h440q17 0 29 12t12 29v393z" />
    <glyph glyph-name="I" unicode="I" horiz-adv-x="550" 
d="M82 1102q0 17 12 29t29 12h252q17 0 29 -12t12 -29v-1061q0 -17 -12 -29t-29 -12h-133q-17 0 -28 12t-11 29v868q0 17 -12 28t-29 11h-39q-17 0 -29 12t-12 29v113z" />
    <glyph glyph-name="J" unicode="J" horiz-adv-x="1042" 
d="M879 1143q17 0 29 -12t12 -29v-615q0 -226 -135 -368t-367 -142q-186 0 -320 95q-15 11 -16 29t12 32l90 90q21 21 49 4q64 -47 185 -47q140 0 213.5 85.5t73.5 221.5v422q0 17 -12 28t-29 11h-322q-17 0 -29 12t-12 29v113q0 17 12 29t29 12h537z" />
    <glyph glyph-name="K" unicode="K" horiz-adv-x="1290" 
d="M702 639q-12 -12 -12 -28.5t12 -28.5l377 -377q12 -12 29 -12h39q17 0 29 -12t12 -27v-113q0 -17 -12 -29t-29 -12h-150q-19 0 -28 12l-418 418q-12 12 -29.5 12t-27.5 -12l-66 -63q-10 -13 -10 -29v-297q0 -17 -12 -29t-29 -12h-135q-17 0 -28 12t-11 29v868
q0 17 -12 28t-29 11h-39q-17 0 -29 12t-12 29v113q0 17 12 29t29 12h254q17 0 29 -12t12 -29v-393q0 -14 12 -19.5t23 4.5l438 439q12 12 29 12h190q26 0 37 -25.5t-8 -44.5z" />
    <glyph glyph-name="L" unicode="L" horiz-adv-x="1017" 
d="M418 240q0 -17 12 -29t29 -12h506q17 0 29 -12t12 -29v-117q0 -17 -12 -29t-29 -12h-721q-17 0 -29 12t-12 29v868q0 17 -12 28t-29 11h-39q-17 0 -29 12t-12 29v113q0 17 12 29t29 12h254q17 0 29 -12t12 -29v-862z" />
    <glyph glyph-name="M" unicode="M" horiz-adv-x="1533" 
d="M1153 1126q14 17 33 17h184q17 0 29 -12t12 -29v-1061q0 -17 -12 -29t-29 -12h-133q-17 0 -29 12t-12 29v727q0 13 -14 18t-23 -6l-323 -432q-12 -17 -33 -17t-33 17l-315 432q-9 12 -23 7.5t-14 -19.5v-727q0 -17 -12 -29t-29 -12h-133q-17 0 -29 12t-12 29v868
q0 17 -12 28t-29 11h-39q-17 0 -29 12t-12 29v113q0 17 12 29t29 12h307q19 0 33 -17l328 -452q6 -9 16 -9t16 9z" />
    <glyph glyph-name="N" unicode="N" 
d="M936 1102q0 17 12 29t29 12h133q17 0 29 -12t12 -29v-1061q0 -17 -12 -29t-29 -12h-74q-17 0 -30 16l-553 705q-7 12 -21 7.5t-14 -19.5v-668q0 -17 -12 -29t-27 -12h-137q-17 0 -29 12t-12 29v868q0 17 -11 28t-28 11h-39q-17 0 -29 12t-12 29v113q0 17 12 29t29 12h233
q19 0 33 -17l510 -647q9 -12 23 -7t14 20v610z" />
    <glyph glyph-name="O" unicode="O" horiz-adv-x="1265" 
d="M1174 565q1 92 -17 177.5t-60.5 163.5t-104.5 135.5t-155.5 91.5t-207.5 34q-115 0 -208.5 -34t-155.5 -91.5t-104 -135.5t-60.5 -163t-18.5 -178t18 -177t59.5 -160.5t103.5 -132t155.5 -88t210.5 -32.5q116 0 209.5 33.5t154.5 89t102.5 132.5t59.5 160t19 175z
M295 561q-2 61 6.5 117t32 110.5t60.5 94t97 64t138 24.5q77 0 137.5 -24.5t97 -63.5t59.5 -93.5t32 -109.5t8 -117q-8 -391 -334 -391t-334 389z" />
    <glyph glyph-name="P" unicode="P" horiz-adv-x="1241" 
d="M739 1143q101 0 183 -34.5t132.5 -91t77.5 -128.5t27.5 -147.5t-27 -147.5t-78 -128.5t-132.5 -91t-183 -34.5h-282q-15 0 -27 -12t-12 -29v-258q0 -17 -12 -29t-29 -12h-135q-17 0 -28 12t-11 29v868q0 17 -12 29t-29 12h-39q-17 0 -29 12t-12 29v113q0 17 12 28t29 11
h616zM739 535q66 0 114.5 30.5t70 76.5t21.5 99.5t-22 99.5t-70.5 76.5t-113.5 30.5h-282q-16 0 -27.5 -11t-11.5 -28v-336q0 -17 11.5 -27.5t27.5 -10.5h282z" />
    <glyph glyph-name="Q" unicode="Q" horiz-adv-x="1259" 
d="M1174 98q12 -12 12 -28.5t-12 -28.5l-95 -94q-12 -12 -28.5 -12t-28.5 12l-78 76q-21 21 -45 8q-120 -60 -270 -60q-117 0 -210.5 32.5t-155.5 88t-103.5 131.5t-59.5 159.5t-18 176.5t18.5 178.5t60.5 164t104 136t155.5 91.5t208.5 34q114 0 207.5 -34.5t155.5 -92
t104 -136t60.5 -164t17.5 -177.5q-3 -197 -82 -340q-6 -11 -3.5 -24.5t11.5 -22.5zM629 170q66 0 112 14q10 3 13.5 14.5t-4.5 18.5l-37 37q-11 10 -10.5 27.5t12.5 29.5l96 92q12 11 28.5 11t26.5 -11l35 -34q7 -8 19 -5t16 13q25 79 25 182q0 62 -8.5 117t-31.5 109.5
t-59 93.5t-96 63.5t-137 24.5q-78 0 -138.5 -24.5t-97 -63.5t-60 -93.5t-32 -109.5t-8.5 -117q0 -60 8.5 -112.5t32 -104.5t60 -89t97 -60t138.5 -23z" />
    <glyph glyph-name="R" unicode="R" horiz-adv-x="1280" 
d="M999 254q14 -14 31 -14h62q17 0 29 -12t12 -29v-158q0 -17 -12 -29t-29 -12h-117q-20 0 -31 14l-307 351q-14 14 -31 14h-149q-17 0 -28 -12t-11 -29v-297q0 -17 -12 -29t-29 -12h-135q-17 0 -29 12t-12 29v868q0 17 -11 29t-28 12h-39q-17 0 -29 12t-12 29v113
q0 17 12 28t29 11h622q97 -1 176.5 -32.5t130.5 -84t78 -120t27 -142.5q0 -117 -55 -209.5t-174 -132.5q-20 -7 -26.5 -29t7.5 -37zM418 612q0 -17 11 -29t28 -12h288q96 0 145.5 56t49.5 131q0 77 -50.5 134.5t-144.5 57.5h-288q-17 0 -28 -12t-11 -29v-297z" />
    <glyph glyph-name="S" unicode="S" horiz-adv-x="1128" 
d="M975 938q15 7 19 25.5t-5 33.5q-123 187 -426 187q-65 -1 -127 -13t-119.5 -38t-100.5 -63.5t-69 -93.5t-26 -124q0 -62 16.5 -112.5t48.5 -85.5t71 -60.5t93 -42.5t104.5 -27.5t114.5 -17.5q265 -28 265 -168q0 -60 -38.5 -100t-95.5 -56t-129 -16q-99 0 -181 36.5
t-124 108.5q-8 14 -23.5 19t-29.5 -2l-109 -56q-15 -7 -20.5 -23.5t2.5 -31.5q122 -244 481 -244q98 0 182.5 21.5t152 64.5t106.5 114.5t39 164.5q0 79 -26 139.5t-66 97.5t-103.5 63.5t-123 39t-140.5 22.5q-57 7 -98.5 16t-80 25t-58 42t-19.5 61q0 68 61 110.5t176 42.5
q78 0 146 -30t106 -74q22 -22 49 -8z" />
    <glyph glyph-name="T" unicode="T" horiz-adv-x="1103" 
d="M82 1102q0 17 12 29t29 12h860q17 0 28 -12t11 -29v-232q0 -17 -11 -29t-28 -12h-113q-17 0 -29 12t-12 29v39q0 17 -12 28t-29 11h-88q-17 0 -27.5 -11t-10.5 -28v-868q0 -17 -12 -29t-29 -12h-136q-17 0 -29 12t-12 29v868q0 17 -10.5 28t-27.5 11h-89q-17 0 -29 -11
t-12 -28v-39q0 -17 -11.5 -29t-28.5 -12h-113q-17 0 -29 12t-12 29v232z" />
    <glyph glyph-name="U" unicode="U" horiz-adv-x="1404" 
d="M870 1100q0 17 12 29t29 12h373q15 0 27 -12t12 -29v-113q0 -17 -12 -29t-27 -12h-41q-16 0 -27.5 -11t-11.5 -28v-422q0 -246 -135.5 -378t-359.5 -132q-105 0 -195 32t-160.5 93.5t-110.5 160.5t-40 224v422q0 17 -12 28t-29 11h-39q-17 0 -29 12t-12 29v113
q0 17 12 29t29 12h373q17 0 28 -12t11 -29v-113q0 -17 -11 -29t-28 -12h-39q-17 0 -29 -11t-12 -28v-422q0 -151 79.5 -232t215.5 -81q133 0 205.5 83t72.5 230v422q0 17 -11 28t-28 11h-39q-17 0 -29 12t-12 29v113z" />
    <glyph glyph-name="V" unicode="V" horiz-adv-x="1417" 
d="M1294 1143q17 0 29 -12t12 -29v-113q0 -17 -12 -29t-29 -12h-53q-28 0 -37 -24l-375 -899q-11 -25 -36 -25h-170q-26 0 -37 25l-373 899q-9 24 -39 24h-51q-17 0 -29 12t-12 29v113q0 17 12 29t29 12h395q17 0 28 -12t11 -29v-113q0 -17 -11 -29t-28 -12h-49
q-10 0 -16.5 -8.5t-3.5 -17.5l239 -615q6 -13 19.5 -13t19.5 13l240 615q4 9 -2 17.5t-17 8.5h-49q-17 0 -29 12t-12 29v113q0 17 12 29t29 12h395z" />
    <glyph glyph-name="W" unicode="W" horiz-adv-x="1980" 
d="M1858 1143q17 0 28.5 -12t11.5 -29v-113q0 -17 -11.5 -29t-28.5 -12h-52q-29 0 -39 -26l-321 -895q-10 -27 -39 -27h-127q-26 0 -37 25l-131 333l-2 2l-100 302q-4 14 -19 14t-20 -14l-99 -306q-2 0 -2 -2l-127 -327q-10 -27 -38 -27h-127q-27 0 -37 27l-330 895
q-10 26 -37 26h-51q-17 0 -29 12t-12 29v113q0 17 12 29t29 12h395q17 0 28 -12t11 -29v-113q0 -17 -11 -29t-28 -12h-55q-9 0 -15.5 -8t-3.5 -18l179 -545q5 -13 20 -13t19 13l182 545q4 10 -2 18t-17 8h-34q-15 0 -27 12t-12 29v113q0 17 12 29t27 12h395q17 0 29 -12
t12 -29v-113q0 -17 -12 -29t-29 -12h-31q-11 0 -17 -8t-3 -18l190 -545q5 -13 20 -13t19 13l172 545q3 10 -3 18t-15 8h-56q-17 0 -29 12t-12 29v113q0 17 12 29t29 12h396z" />
    <glyph glyph-name="X" unicode="X" horiz-adv-x="1239" 
d="M995 211q9 -18 33 -18h68q17 0 29 -12t12 -27v-113q0 -17 -12 -29t-29 -12h-178q-23 0 -35 18l-262 385q-6 9 -17.5 9t-17.5 -9l-262 -385q-12 -18 -33 -18h-148q-25 0 -36.5 21.5t2.5 41.5l342 492q16 23 0 45l-230 332q-13 16 -33 16h-67q-15 0 -27 12t-12 29v113
q0 17 12 29t27 12h176q18 0 33 -19l256 -383q6 -9 17.5 -9t17.5 9l256 383q15 19 34 19h144q25 0 35.5 -22t-3.5 -42l-331 -479q-17 -21 0 -45z" />
    <glyph glyph-name="Y" unicode="Y" horiz-adv-x="1243" 
d="M920 1124q15 19 34 19h166q25 0 37 -22t-2 -42l-412 -598q-8 -8 -8 -22v-418q0 -17 -12 -29t-27 -12h-135q-17 0 -29 12t-12 29v418q0 13 -6 22l-299 451q-13 16 -33 16h-59q-17 0 -29 12t-12 29v113q0 17 12 29t29 12h192q21 0 35 -21l260 -424q6 -9 17.5 -9t17.5 9z
" />
    <glyph glyph-name="Z" unicode="Z" horiz-adv-x="1095" 
d="M934 1143q17 0 28 -12t11 -29v-47q0 -16 -6 -25l-570 -805q-7 -11 -1 -21.5t18 -10.5h325q17 0 29 11.5t12 28.5v39q0 17 12 29t29 12h113q17 0 28 -12t11 -29v-79v-152q0 -17 -11 -29t-28 -12h-813q-17 0 -28 12t-11 29v70q0 12 6 24l555 783q7 9 1.5 19.5t-17.5 10.5
h-297q-17 0 -29 -11t-12 -28v-39q0 -17 -12 -29t-29 -12h-111q-17 0 -29 12t-12 29v78v154q0 17 12 29t29 12h797z" />
    <glyph glyph-name="a" unicode="a" horiz-adv-x="1257" 
d="M719 1143q26 0 37 -25l477 -1061q9 -20 -3 -38.5t-34 -18.5h-147q-25 0 -37 25l-74 165q-11 25 -37 25h-545q-26 0 -37 -25l-75 -167q-13 -23 -37 -23h-146q-22 0 -33.5 18.5t-2.5 38.5l372 832q9 20 -3 38.5t-34 18.5h-16q-17 0 -29 12t-12 29v115q0 17 12 29t29 12h375
zM428 444q-3 -11 3 -19.5t18 -8.5h360q11 0 16.5 9t1.5 19l-180 414q-5 12 -19 12t-18 -12z" />
    <glyph glyph-name="b" unicode="b" horiz-adv-x="1202" 
d="M979 561q60 -40 90.5 -106t30.5 -119q0 -336 -426 -336h-502q-17 0 -29 11t-12 28v866q0 17 -12 29t-29 12h-39q-17 0 -28 11t-11 28v115q0 17 11 29t28 12h623q178 0 285.5 -83t107.5 -249q0 -114 -88 -182q-17 -13 -17 -34t17 -32zM344 723q0 -17 11 -29t28 -12h291
q95 0 136.5 34t41.5 89q0 24 -6.5 45t-23.5 44.5t-55 37.5t-93 14h-291q-17 0 -28 -12t-11 -29v-182zM674 201q36 0 71 6.5t68 21t53.5 42t20.5 65.5q0 75 -60.5 116.5t-152.5 41.5h-291q-17 0 -28 -12t-11 -29v-213q0 -17 11 -28t28 -11h291z" />
    <glyph glyph-name="c" unicode="c" horiz-adv-x="1177" 
d="M952 293q-10 10 -25.5 10.5t-27.5 -8.5q-55 -44 -124 -68t-136 -24q-102 0 -180 33.5t-122.5 90t-67 123t-23.5 140.5t22.5 142.5t69 126.5t124 93t177.5 35q142 0 248 -84q12 -10 27 -9.5t26 11.5l86 82q13 12 12.5 30.5t-12.5 29.5q-171 145 -387 145
q-120 0 -221.5 -34t-171.5 -92t-119 -135t-72 -163.5t-22 -177.5q1 -115 37 -218t107 -187.5t190 -134.5t272 -50q235 0 401 141q13 10 13.5 29t-11.5 31z" />
    <glyph glyph-name="d" unicode="d" horiz-adv-x="1247" 
d="M582 1143q114 0 208.5 -31.5t160 -85t111 -126t67.5 -152.5t24 -166q2 -112 -32 -213.5t-101.5 -185t-180.5 -133.5t-257 -50h-408q-17 0 -29 12t-12 29v864q0 17 -12 29t-29 12h-39q-17 0 -29 12t-12 29v115q0 17 12 29t29 12h529zM582 207q94 0 165.5 32.5t113 86.5
t61.5 119t18 137q-2 69 -24 131t-63.5 113.5t-111.5 81.5t-159 30h-195q-17 0 -29 -12t-12 -29v-649q0 -17 12 -29t29 -12h195z" />
    <glyph glyph-name="e" unicode="e" horiz-adv-x="1110" 
d="M987 989q0 -17 -11 -29t-28 -12h-561q-17 0 -29 -11t-12 -28v-200q0 -17 12 -29t29 -12h477q15 0 27 -12t12 -29v-113q0 -17 -11.5 -28t-27.5 -11h-477q-17 0 -29 -12t-12 -29v-201q0 -17 12 -28.5t29 -11.5h561q17 0 28 -11.5t11 -27.5v-113q0 -17 -11 -29t-28 -12h-774
q-17 0 -29 12t-12 29v868q0 17 -12 28t-29 11h-39q-17 0 -29 12t-12 29v113q0 17 12 29t29 12h895q17 0 28 -12t11 -29v-113z" />
    <glyph glyph-name="f" unicode="f" horiz-adv-x="1075" 
d="M952 989q0 -15 -12 -27t-29 -12h-524q-17 0 -29 -12t-12 -29v-250q0 -17 12 -29t29 -12h430q17 0 29 -11.5t12 -26.5v-113q0 -17 -12 -29t-29 -12h-430q-17 0 -29 -12t-12 -29v-344q0 -17 -12 -29t-27 -12h-135q-17 0 -29 12t-12 29v868q0 17 -12 29t-29 12h-39
q-17 0 -28 11.5t-11 27.5v113q0 17 11 29t28 12h860q17 0 29 -12t12 -29v-113z" />
    <glyph glyph-name="g" unicode="g" horiz-adv-x="1218" 
d="M1085 662q17 0 29 -11t12 -28v-320v-123v-139q0 -15 -12 -27t-29 -12h-131q-20 0 -20 21v2q0 5 -5 8t-9 0q-127 -58 -248 -58q-125 0 -227.5 32t-171.5 86.5t-116 129.5t-68 158.5t-21 175.5q0 98 23.5 188t73 169t120 137t170 91.5t217.5 33.5q219 0 391 -146
q13 -10 13.5 -27.5t-11.5 -29.5l-78 -82q-10 -10 -25.5 -10.5t-27.5 8.5q-120 90 -262 90q-180 0 -286.5 -120t-106.5 -302q0 -73 22 -138.5t67 -121t123 -88.5t181 -33q134 0 241 80q15 9 15 31v143q0 17 -11 28t-28 11h-211q-17 0 -29 12t-12 29v113q0 17 12 28t29 11h407
z" />
    <glyph glyph-name="h" unicode="h" horiz-adv-x="1204" 
d="M868 1102q0 17 12 29t29 12h133q15 0 27 -12t12 -29v-1061q0 -17 -12 -29t-27 -12h-133q-17 0 -29 12t-12 29v393q0 17 -12 29t-29 12h-440q-15 0 -27 -12t-12 -29v-393q0 -17 -12 -29t-29 -12h-135q-17 0 -28 12t-11 29v868q0 17 -12 28t-29 11h-39q-17 0 -29 12t-12 29
v113q0 17 12 29t29 12h254q17 0 29 -12t12 -29v-393q0 -17 12 -29t27 -12h440q17 0 29 12t12 29v393z" />
    <glyph glyph-name="i" unicode="i" horiz-adv-x="481" 
d="M12 1102q0 17 12 29t29 12h252q17 0 29 -12t12 -29v-1061q0 -17 -12 -29t-29 -12h-133q-17 0 -28 12t-11 29v868q0 17 -12 28t-29 11h-39q-17 0 -29 12t-12 29v113z" />
    <glyph glyph-name="j" unicode="j" horiz-adv-x="972" 
d="M809 1143q17 0 29 -12t12 -29v-615q0 -226 -135 -368t-367 -142q-185 0 -319 95q-15 11 -16 29t12 32l90 90q21 21 49 4q64 -47 184 -47q140 0 213.5 85.5t73.5 221.5v422q0 17 -12 28t-29 11h-322q-17 0 -29 12t-12 29v113q0 17 12 29t29 12h537z" />
    <glyph glyph-name="k" unicode="k" horiz-adv-x="1220" 
d="M633 639q-12 -12 -12 -28.5t12 -28.5l377 -377q12 -12 28 -12h39q17 0 29 -12t12 -27v-113q0 -17 -12 -29t-29 -12h-149q-20 0 -29 12l-418 418q-12 12 -29.5 12t-27.5 -12l-66 -63q-10 -13 -10 -29v-297q0 -17 -12 -29t-29 -12h-135q-17 0 -28 12t-11 29v868
q0 17 -12 28t-29 11h-39q-17 0 -29 12t-12 29v113q0 17 12 29t29 12h254q17 0 29 -12t12 -29v-393q0 -14 12 -19.5t23 4.5l438 439q12 12 29 12h190q26 0 37 -25.5t-8 -44.5z" />
    <glyph glyph-name="l" unicode="l" horiz-adv-x="997" 
d="M348 240q0 -17 12 -29t29 -12h506q17 0 29 -12t12 -29v-117q0 -17 -12 -29t-29 -12h-721q-17 0 -29 12t-12 29v868q0 17 -12 28t-29 11h-39q-17 0 -29 12t-12 29v113q0 17 12 29t29 12h254q17 0 29 -12t12 -29v-862z" />
    <glyph glyph-name="m" unicode="m" horiz-adv-x="1464" 
d="M1083 1126q14 17 33 17h184q17 0 29 -12t12 -29v-1061q0 -17 -12 -29t-29 -12h-133q-17 0 -29 12t-12 29v727q0 14 -13.5 18t-22.5 -6l-324 -432q-12 -17 -33 -17t-33 17l-315 432q-9 12 -23 7.5t-14 -19.5v-727q0 -17 -12 -29t-29 -12h-133q-17 0 -29 12t-12 29v868
q0 17 -12 28t-29 11h-39q-17 0 -29 12t-12 29v113q0 17 12 29t29 12h307q19 0 33 -17l328 -452q6 -9 16.5 -9t16.5 9z" />
    <glyph glyph-name="n" unicode="n" horiz-adv-x="1204" 
d="M866 1102q0 17 12 29t29 12h133q17 0 29 -12t12 -29v-1061q0 -17 -12 -29t-29 -12h-73q-18 0 -31 16l-553 705q-7 12 -21 7.5t-14 -19.5v-668q0 -17 -12 -29t-27 -12h-137q-17 0 -29 12t-12 29v868q0 17 -11 28t-28 11h-39q-17 0 -29 12t-12 29v113q0 17 12 29t29 12h234
q18 0 32 -17l510 -647q9 -12 23 -7t14 20v610z" />
    <glyph glyph-name="o" unicode="o" horiz-adv-x="1058" 
d="M918 201q17 0 28.5 -12.5t11.5 -30.5v-115q0 -19 -11.5 -31t-28.5 -12h-775q-19 0 -31 12t-12 31v115q0 18 12.5 30.5t30.5 12.5h775zM526 346q-69 1 -131.5 14.5t-120 44.5t-100 77t-67.5 116.5t-25 157.5t25 157.5t66.5 116.5t99 77t120 44.5t131.5 13.5q70 0 134 -14
t122.5 -45.5t102 -78t69 -116t25.5 -155.5q0 -106 -38.5 -188t-104 -129t-143.5 -70.5t-165 -22.5zM524 965q-243 -4 -243 -209t243 -209q49 -1 91.5 8.5t81 31.5t61 65.5t22.5 103.5t-22.5 103.5t-61 66t-81 32t-91.5 7.5z" />
    <glyph glyph-name="p" unicode="p" horiz-adv-x="1212" 
d="M670 1143q101 0 183 -34.5t132.5 -91t77.5 -128.5t27.5 -147.5t-27 -147.5t-78 -128.5t-132.5 -91t-183 -34.5h-283q-15 0 -27 -12t-12 -29v-258q0 -17 -12 -29t-29 -12h-135q-17 0 -28 12t-11 29v868q0 17 -12 29t-29 12h-39q-17 0 -29 12t-12 29v113q0 17 12 28t29 11
h617zM670 535q66 0 114.5 30.5t70 76.5t21.5 99.5t-22 99.5t-70.5 76.5t-113.5 30.5h-283q-16 0 -27.5 -11t-11.5 -28v-336q0 -17 11.5 -27.5t27.5 -10.5h283zM670 1143q101 0 183 -34.5t132.5 -91t77.5 -128.5t27.5 -147.5t-27 -147.5t-78 -128.5t-132.5 -91t-183 -34.5
h-283q-15 0 -27 -12t-12 -29v-258q0 -17 -12 -29t-29 -12h-135q-17 0 -28 12t-11 29v868q0 17 -12 29t-29 12h-39q-17 0 -29 12t-12 29v113q0 17 12 28t29 11h617zM670 535q66 0 114.5 30.5t70 76.5t21.5 99.5t-22 99.5t-70.5 76.5t-113.5 30.5h-283q-16 0 -27.5 -11
t-11.5 -28v-336q0 -17 11.5 -27.5t27.5 -10.5h283z" />
    <glyph glyph-name="q" unicode="q" horiz-adv-x="1239" 
d="M1176 98q12 -12 12 -28.5t-12 -28.5l-95 -94q-12 -12 -28.5 -12t-28.5 12l-78 76q-21 21 -45 8q-120 -60 -270 -60q-117 0 -210.5 32.5t-155.5 88t-103.5 131.5t-59.5 159.5t-18 176.5t18.5 178.5t60.5 164t104 136t155.5 91.5t208.5 34q114 0 207.5 -34.5t155.5 -92
t104 -136t60.5 -164t17.5 -177.5q-3 -197 -82 -340q-6 -11 -3.5 -24.5t11.5 -22.5zM631 170q66 0 112 14q10 3 13.5 14.5t-4.5 18.5l-37 37q-11 10 -10.5 27.5t12.5 29.5l96 92q12 11 28.5 11t26.5 -11l35 -34q7 -8 19 -5t16 13q25 79 25 182q0 62 -8.5 117t-31.5 109.5
t-59 93.5t-96 63.5t-137 24.5q-78 0 -138.5 -24.5t-97 -63.5t-60 -93.5t-32 -109.5t-8.5 -117q0 -60 8.5 -112.5t32 -104.5t60 -89t97 -60t138.5 -23z" />
    <glyph glyph-name="r" unicode="r" horiz-adv-x="1210" 
d="M930 254q14 -14 31 -14h61q17 0 29 -12t12 -29v-158q0 -17 -12 -29t-29 -12h-117q-20 0 -31 14l-307 351q-14 14 -30 14h-150q-17 0 -28 -12t-11 -29v-297q0 -17 -12 -29t-29 -12h-135q-17 0 -29 12t-12 29v868q0 17 -11 29t-28 12h-39q-17 0 -29 12t-12 29v113
q0 17 12 28t29 11h623q97 -1 176.5 -32.5t130 -84t77.5 -120t27 -142.5q0 -117 -55 -209.5t-174 -132.5q-20 -7 -26 -29t8 -37zM348 612q0 -17 11 -29t28 -12h289q96 0 145 55.5t49 131.5q0 77 -50 134.5t-144 57.5h-289q-17 0 -28 -12t-11 -29v-297z" />
    <glyph glyph-name="s" unicode="s" horiz-adv-x="1042" 
d="M920 938q15 7 19 25.5t-5 33.5q-123 187 -426 187q-65 -1 -127 -13t-119.5 -38t-100.5 -63.5t-69 -93.5t-26 -124q0 -62 16.5 -112.5t48.5 -85.5t71 -60.5t93 -42.5t104.5 -27.5t114.5 -17.5q264 -28 264 -168q0 -60 -38.5 -100t-95 -56t-128.5 -16q-99 0 -181 36.5
t-124 108.5q-8 14 -23.5 19t-29.5 -2l-109 -56q-15 -7 -20.5 -23.5t2.5 -31.5q122 -244 481 -244q98 0 182.5 21.5t152 64.5t106 114.5t38.5 164.5q0 79 -26 139.5t-66 97.5t-103.5 63.5t-123 39t-140.5 22.5q-57 7 -98.5 16t-80 25t-58 42t-19.5 61q0 68 61.5 110.5
t176.5 42.5q78 0 146 -30t106 -74q22 -22 49 -8z" />
    <glyph glyph-name="t" unicode="t" horiz-adv-x="1103" 
d="M82 1102q0 17 12 29t29 12h860q17 0 28 -12t11 -29v-232q0 -17 -11 -29t-28 -12h-113q-17 0 -29 12t-12 29v39q0 17 -12 28t-29 11h-88q-17 0 -27.5 -11t-10.5 -28v-868q0 -17 -12 -29t-29 -12h-136q-17 0 -29 12t-12 29v868q0 17 -10.5 28t-27.5 11h-89q-17 0 -29 -11
t-12 -28v-39q0 -17 -11.5 -29t-28.5 -12h-113q-17 0 -29 12t-12 29v232z" />
    <glyph glyph-name="u" unicode="u" horiz-adv-x="1376" 
d="M856 1100q0 17 12 29t29 12h373q15 0 27 -12t12 -29v-113q0 -17 -12 -29t-27 -12h-41q-16 0 -27.5 -11t-11.5 -28v-422q0 -246 -136 -378t-360 -132q-105 0 -195 32t-160.5 93.5t-110.5 160.5t-40 224v422q0 17 -12 28t-29 11h-38q-17 0 -29 12t-12 29v113q0 17 12 29
t29 12h372q17 0 28 -12t11 -29v-113q0 -17 -11 -29t-28 -12h-39q-17 0 -29 -11t-12 -28v-422q0 -151 79.5 -232t215.5 -81q133 0 206 83t73 230v422q0 17 -11 28t-28 11h-39q-17 0 -29 12t-12 29v113z" />
    <glyph glyph-name="v" unicode="v" horiz-adv-x="1417" 
d="M1294 1143q17 0 29 -12t12 -29v-113q0 -17 -12 -29t-29 -12h-53q-28 0 -37 -24l-375 -899q-11 -25 -36 -25h-170q-26 0 -37 25l-373 899q-9 24 -39 24h-51q-17 0 -29 12t-12 29v113q0 17 12 29t29 12h395q17 0 28 -12t11 -29v-113q0 -17 -11 -29t-28 -12h-49
q-10 0 -16.5 -8.5t-3.5 -17.5l239 -615q6 -13 19.5 -13t19.5 13l240 615q4 9 -2 17.5t-17 8.5h-49q-17 0 -29 12t-12 29v113q0 17 12 29t29 12h395z" />
    <glyph glyph-name="w" unicode="w" horiz-adv-x="1918" 
d="M1827 1143q17 0 29 -12t12 -29v-113q0 -17 -12 -29t-29 -12h-51q-29 0 -39 -26l-322 -895q-10 -27 -39 -27h-127q-26 0 -37 25l-131 333l-2 2l-100 302q-5 14 -20 14t-19 -14l-98 -306q-2 0 -2 -2l-127 -327q-10 -27 -39 -27h-127q-27 0 -37 27l-330 895q-10 26 -37 26
h-51q-17 0 -29 12t-12 29v113q0 17 12 29t29 12h395q17 0 28 -12t11 -29v-113q0 -17 -11 -29t-28 -12h-55q-9 0 -15 -8t-3 -18l178 -545q4 -13 19 -13t20 13l182 545q4 10 -1.5 18t-16.5 8h-35q-15 0 -27 12t-12 29v113q0 17 12 29t27 12h395q17 0 29 -12t12 -29v-113
q0 -17 -12 -29t-29 -12h-31q-11 0 -17 -8t-3 -18l190 -545q4 -13 19 -13t20 13l172 545q3 10 -3 18t-15 8h-55q-17 0 -29 12t-12 29v113q0 17 12 29t29 12h395z" />
    <glyph glyph-name="x" unicode="x" horiz-adv-x="1239" 
d="M995 211q9 -18 33 -18h68q17 0 29 -12t12 -27v-113q0 -17 -12 -29t-29 -12h-178q-23 0 -35 18l-262 385q-6 9 -17.5 9t-17.5 -9l-262 -385q-12 -18 -33 -18h-148q-25 0 -36.5 21.5t2.5 41.5l342 492q16 23 0 45l-230 332q-13 16 -33 16h-67q-15 0 -27 12t-12 29v113
q0 17 12 29t27 12h176q18 0 33 -19l256 -383q6 -9 17.5 -9t17.5 9l256 383q15 19 34 19h144q25 0 35.5 -22t-3.5 -42l-331 -479q-17 -21 0 -45z" />
    <glyph glyph-name="y" unicode="y" horiz-adv-x="1142" 
d="M850 1124q15 19 35 19h166q25 0 36.5 -22t-2.5 -42l-411 -598q-8 -8 -8 -22v-418q0 -17 -12 -29t-27 -12h-135q-17 0 -29 12t-12 29v418q0 11 -7 22l-299 451q-13 16 -32 16h-60q-17 0 -29 12t-12 29v113q0 17 12 29t29 12h193q21 0 35 -21l260 -424q6 -9 17 -9t17 9z
" />
    <glyph glyph-name="z" unicode="z" horiz-adv-x="974" 
d="M885 1143q17 0 28 -12t11 -29v-47q0 -16 -6 -25l-570 -805q-7 -11 -1 -21.5t18 -10.5h325q17 0 29 11.5t12 28.5v39q0 17 12 29t29 12h113q17 0 28 -12t11 -29v-79v-152q0 -17 -11 -29t-28 -12h-813q-17 0 -28 12t-11 29v70q0 12 6 24l555 783q7 9 1.5 19.5t-17.5 10.5
h-297q-17 0 -29 -11t-12 -28v-39q0 -17 -12 -29t-29 -12h-111q-17 0 -29 12t-12 29v78v154q0 17 12 29t29 12h797z" />
    </font>
</defs>
</svg>
